<?xml version="1.0" encoding="UTF-8"?>
<svg version="1.1" xmlns="http://www.w3.org/2000/svg" width="281" height="300">
<path d="M0 0 C92.73 0 185.46 0 281 0 C281 99 281 198 281 300 C188.27 300 95.54 300 0 300 C0 201 0 102 0 0 Z " fill="#EBEBEB" transform="translate(0,0)"/>
<path d="M0 0 C6.93 0 13.86 0 21 0 C21 2.64 21 5.28 21 8 C23.31 8 25.62 8 28 8 C28 10.31 28 12.62 28 15 C30.31 15 32.62 15 35 15 C35 12.36 35 9.72 35 7 C32.69 7 30.38 7 28 7 C28 4.69 28 2.38 28 0 C32.62 0 37.24 0 42 0 C42 4.95 42 9.9 42 15 C44.31 15 46.62 15 49 15 C49 10.05 49 5.1 49 0 C51.31 0 53.62 0 56 0 C56 2.64 56 5.28 56 8 C60.62 8 65.24 8 70 8 C70 10.31 70 12.62 70 15 C72.31 15 74.62 15 77 15 C77 12.69 77 10.38 77 8 C79.31 8 81.62 8 84 8 C84 10.31 84 12.62 84 15 C88.62 15 93.24 15 98 15 C98 19.95 98 24.9 98 30 C95.69 30 93.38 30 91 30 C91 32.31 91 34.62 91 37 C93.31 37 95.62 37 98 37 C98 42.28 98 47.56 98 53 C95.69 53 93.38 53 91 53 C91 55.31 91 57.62 91 60 C104.86 60 118.72 60 133 60 C133 64.95 133 69.9 133 75 C130.69 75 128.38 75 126 75 C126 77.31 126 79.62 126 82 C123.69 82 121.38 82 119 82 C119 79.69 119 77.38 119 75 C116.69 75 114.38 75 112 75 C112 72.69 112 70.38 112 68 C109.69 68 107.38 68 105 68 C105 70.31 105 72.62 105 75 C102.69 75 100.38 75 98 75 C98 72.69 98 70.38 98 68 C95.69 68 93.38 68 91 68 C91 75.26 91 82.52 91 90 C93.31 90 95.62 90 98 90 C98 92.64 98 95.28 98 98 C100.31 98 102.62 98 105 98 C105 105.26 105 112.52 105 120 C102.69 120 100.38 120 98 120 C98 122.31 98 124.62 98 127 C95.69 127 93.38 127 91 127 C91 124.69 91 122.38 91 120 C88.69 120 86.38 120 84 120 C84 122.31 84 124.62 84 127 C79.38 127 74.76 127 70 127 C70 122.38 70 117.76 70 113 C72.31 113 74.62 113 77 113 C77 110.36 77 107.72 77 105 C79.31 105 81.62 105 84 105 C84 102.69 84 100.38 84 98 C79.38 98 74.76 98 70 98 C70 102.62 70 107.24 70 112 C67.69 112 65.38 112 63 112 C63 109.69 63 107.38 63 105 C58.38 105 53.76 105 49 105 C49 107.31 49 109.62 49 112 C51.31 112 53.62 112 56 112 C56 114.64 56 117.28 56 120 C53.69 120 51.38 120 49 120 C49 122.64 49 125.28 49 128 C46.69 128 44.38 128 42 128 C42 125.36 42 122.72 42 120 C37.38 120 32.76 120 28 120 C28 122.64 28 125.28 28 128 C30.31 128 32.62 128 35 128 C35 135.26 35 142.52 35 150 C30.38 150 25.76 150 21 150 C21 152.31 21 154.62 21 157 C18.69 157 16.38 157 14 157 C14 159.64 14 162.28 14 165 C16.31 165 18.62 165 21 165 C21 167.31 21 169.62 21 172 C18.69 172 16.38 172 14 172 C14 176.95 14 181.9 14 187 C11.69 187 9.38 187 7 187 C7 184.69 7 182.38 7 180 C4.69 180 2.38 180 0 180 C0 187.26 0 194.52 0 202 C2.31 202 4.62 202 7 202 C7 199.69 7 197.38 7 195 C9.31 195 11.62 195 14 195 C14 192.69 14 190.38 14 188 C16.31 188 18.62 188 21 188 C21 190.31 21 192.62 21 195 C23.31 195 25.62 195 28 195 C28 190.05 28 185.1 28 180 C30.31 180 32.62 180 35 180 C35 182.64 35 185.28 35 188 C37.31 188 39.62 188 42 188 C42 183.05 42 178.1 42 173 C46.62 173 51.24 173 56 173 C56 167.72 56 162.44 56 157 C53.69 157 51.38 157 49 157 C49 154.69 49 152.38 49 150 C46.69 150 44.38 150 42 150 C42 145.05 42 140.1 42 135 C44.31 135 46.62 135 49 135 C49 137.64 49 140.28 49 143 C51.31 143 53.62 143 56 143 C56 145.31 56 147.62 56 150 C60.62 150 65.24 150 70 150 C70 145.05 70 140.1 70 135 C72.31 135 74.62 135 77 135 C77 137.64 77 140.28 77 143 C79.31 143 81.62 143 84 143 C84 138.05 84 133.1 84 128 C86.31 128 88.62 128 91 128 C91 132.95 91 137.9 91 143 C95.62 143 100.24 143 105 143 C105 145.31 105 147.62 105 150 C98.07 150 91.14 150 84 150 C84 152.31 84 154.62 84 157 C77.07 157 70.14 157 63 157 C63 161.95 63 166.9 63 172 C65.31 172 67.62 172 70 172 C70 169.69 70 167.38 70 165 C72.31 165 74.62 165 77 165 C77 169.95 77 174.9 77 180 C79.31 180 81.62 180 84 180 C84 172.74 84 165.48 84 158 C86.31 158 88.62 158 91 158 C91 165.26 91 172.52 91 180 C93.31 180 95.62 180 98 180 C98 177.69 98 175.38 98 173 C102.62 173 107.24 173 112 173 C112 175.31 112 177.62 112 180 C116.62 180 121.24 180 126 180 C126 182.64 126 185.28 126 188 C130.62 188 135.24 188 140 188 C140 180.41 140 172.82 140 165 C142.31 165 144.62 165 147 165 C147 169.95 147 174.9 147 180 C149.31 180 151.62 180 154 180 C154 182.31 154 184.62 154 187 C151.69 187 149.38 187 147 187 C147 191.95 147 196.9 147 202 C144.69 202 142.38 202 140 202 C140 199.69 140 197.38 140 195 C135.38 195 130.76 195 126 195 C126 199.95 126 204.9 126 210 C128.31 210 130.62 210 133 210 C133 212.64 133 215.28 133 218 C135.31 218 137.62 218 140 218 C140 220.31 140 222.62 140 225 C135.38 225 130.76 225 126 225 C126 229.95 126 234.9 126 240 C123.69 240 121.38 240 119 240 C119 242.31 119 244.62 119 247 C116.69 247 114.38 247 112 247 C112 242.38 112 237.76 112 233 C114.31 233 116.62 233 119 233 C119 228.05 119 223.1 119 218 C116.69 218 114.38 218 112 218 C112 222.62 112 227.24 112 232 C109.69 232 107.38 232 105 232 C105 229.69 105 227.38 105 225 C100.38 225 95.76 225 91 225 C91 227.64 91 230.28 91 233 C95.62 233 100.24 233 105 233 C105 235.31 105 237.62 105 240 C102.69 240 100.38 240 98 240 C98 242.31 98 244.62 98 247 C84.14 247 70.28 247 56 247 C56 244.69 56 242.38 56 240 C53.69 240 51.38 240 49 240 C49 242.31 49 244.62 49 247 C44.38 247 39.76 247 35 247 C35 244.69 35 242.38 35 240 C32.69 240 30.38 240 28 240 C28 242.31 28 244.62 28 247 C25.69 247 23.38 247 21 247 C21 242.38 21 237.76 21 233 C23.31 233 25.62 233 28 233 C28 230.36 28 227.72 28 225 C30.31 225 32.62 225 35 225 C35 227.64 35 230.28 35 233 C37.31 233 39.62 233 42 233 C42 230.36 42 227.72 42 225 C44.31 225 46.62 225 49 225 C49 222.69 49 220.38 49 218 C53.62 218 58.24 218 63 218 C63 213.05 63 208.1 63 203 C65.31 203 67.62 203 70 203 C70 200.36 70 197.72 70 195 C67.69 195 65.38 195 63 195 C63 190.05 63 185.1 63 180 C58.38 180 53.76 180 49 180 C49 184.95 49 189.9 49 195 C46.69 195 44.38 195 42 195 C42 202.26 42 209.52 42 217 C39.69 217 37.38 217 35 217 C35 212.05 35 207.1 35 202 C28.07 202 21.14 202 14 202 C14 204.64 14 207.28 14 210 C7.07 210 0.14 210 -7 210 C-7 207.36 -7 204.72 -7 202 C-11.62 202 -16.24 202 -21 202 C-21 197.05 -21 192.1 -21 187 C-25.62 187 -30.24 187 -35 187 C-35 184.69 -35 182.38 -35 180 C-37.31 180 -39.62 180 -42 180 C-42 175.05 -42 170.1 -42 165 C-46.62 165 -51.24 165 -56 165 C-56 167.31 -56 169.62 -56 172 C-53.69 172 -51.38 172 -49 172 C-49 174.64 -49 177.28 -49 180 C-51.31 180 -53.62 180 -56 180 C-56 182.31 -56 184.62 -56 187 C-62.93 187 -69.86 187 -77 187 C-77 184.69 -77 182.38 -77 180 C-72.38 180 -67.76 180 -63 180 C-63 172.74 -63 165.48 -63 158 C-60.69 158 -58.38 158 -56 158 C-56 155.36 -56 152.72 -56 150 C-53.69 150 -51.38 150 -49 150 C-49 147.69 -49 145.38 -49 143 C-46.69 143 -44.38 143 -42 143 C-42 140.36 -42 137.72 -42 135 C-46.62 135 -51.24 135 -56 135 C-56 132.36 -56 129.72 -56 127 C-60.62 127 -65.24 127 -70 127 C-70 122.05 -70 117.1 -70 112 C-72.31 112 -74.62 112 -77 112 C-77 109.69 -77 107.38 -77 105 C-74.69 105 -72.38 105 -70 105 C-70 102.36 -70 99.72 -70 97 C-72.31 97 -74.62 97 -77 97 C-77 84.79 -77 72.58 -77 60 C-74.69 60 -72.38 60 -70 60 C-70 62.64 -70 65.28 -70 68 C-67.69 68 -65.38 68 -63 68 C-63 70.31 -63 72.62 -63 75 C-58.38 75 -53.76 75 -49 75 C-49 77.31 -49 79.62 -49 82 C-44.38 82 -39.76 82 -35 82 C-35 79.69 -35 77.38 -35 75 C-32.69 75 -30.38 75 -28 75 C-28 72.36 -28 69.72 -28 67 C-30.31 67 -32.62 67 -35 67 C-35 64.69 -35 62.38 -35 60 C-30.38 60 -25.76 60 -21 60 C-21 47.79 -21 35.58 -21 23 C-18.69 23 -16.38 23 -14 23 C-14 20.36 -14 17.72 -14 15 C-11.69 15 -9.38 15 -7 15 C-7 19.95 -7 24.9 -7 30 C2.24 30 11.48 30 21 30 C21 32.31 21 34.62 21 37 C25.62 37 30.24 37 35 37 C35 32.38 35 27.76 35 23 C30.38 23 25.76 23 21 23 C21 20.36 21 17.72 21 15 C18.69 15 16.38 15 14 15 C14 17.64 14 20.28 14 23 C9.38 23 4.76 23 0 23 C0 20.36 0 17.72 0 15 C2.31 15 4.62 15 7 15 C7 12.36 7 9.72 7 7 C4.69 7 2.38 7 0 7 C0 4.69 0 2.38 0 0 Z " fill="#0D0D0D" transform="translate(101,25)"/>
<path d="M0 0 C2.31 0 4.62 0 7 0 C7 4.95 7 9.9 7 15 C11.62 15 16.24 15 21 15 C21 17.31 21 19.62 21 22 C14.07 22 7.14 22 0 22 C0 24.31 0 26.62 0 29 C-6.93 29 -13.86 29 -21 29 C-21 33.95 -21 38.9 -21 44 C-18.69 44 -16.38 44 -14 44 C-14 41.69 -14 39.38 -14 37 C-11.69 37 -9.38 37 -7 37 C-7 41.95 -7 46.9 -7 52 C-4.69 52 -2.38 52 0 52 C0 44.74 0 37.48 0 30 C2.31 30 4.62 30 7 30 C7 37.26 7 44.52 7 52 C9.31 52 11.62 52 14 52 C14 49.69 14 47.38 14 45 C18.62 45 23.24 45 28 45 C28 47.31 28 49.62 28 52 C32.62 52 37.24 52 42 52 C42 54.64 42 57.28 42 60 C46.62 60 51.24 60 56 60 C56 52.41 56 44.82 56 37 C58.31 37 60.62 37 63 37 C63 41.95 63 46.9 63 52 C65.31 52 67.62 52 70 52 C70 54.31 70 56.62 70 59 C67.69 59 65.38 59 63 59 C63 63.95 63 68.9 63 74 C60.69 74 58.38 74 56 74 C56 71.69 56 69.38 56 67 C51.38 67 46.76 67 42 67 C42 71.95 42 76.9 42 82 C44.31 82 46.62 82 49 82 C49 84.64 49 87.28 49 90 C51.31 90 53.62 90 56 90 C56 92.31 56 94.62 56 97 C51.38 97 46.76 97 42 97 C42 101.95 42 106.9 42 112 C39.69 112 37.38 112 35 112 C35 114.31 35 116.62 35 119 C32.69 119 30.38 119 28 119 C28 114.38 28 109.76 28 105 C30.31 105 32.62 105 35 105 C35 100.05 35 95.1 35 90 C32.69 90 30.38 90 28 90 C28 94.62 28 99.24 28 104 C25.69 104 23.38 104 21 104 C21 101.69 21 99.38 21 97 C16.38 97 11.76 97 7 97 C7 99.64 7 102.28 7 105 C11.62 105 16.24 105 21 105 C21 107.31 21 109.62 21 112 C18.69 112 16.38 112 14 112 C14 114.31 14 116.62 14 119 C0.14 119 -13.72 119 -28 119 C-28 116.69 -28 114.38 -28 112 C-30.31 112 -32.62 112 -35 112 C-35 114.31 -35 116.62 -35 119 C-39.62 119 -44.24 119 -49 119 C-49 116.69 -49 114.38 -49 112 C-51.31 112 -53.62 112 -56 112 C-56 114.31 -56 116.62 -56 119 C-58.31 119 -60.62 119 -63 119 C-63 114.38 -63 109.76 -63 105 C-60.69 105 -58.38 105 -56 105 C-56 102.36 -56 99.72 -56 97 C-53.69 97 -51.38 97 -49 97 C-49 99.64 -49 102.28 -49 105 C-46.69 105 -44.38 105 -42 105 C-42 102.36 -42 99.72 -42 97 C-39.69 97 -37.38 97 -35 97 C-35 94.69 -35 92.38 -35 90 C-30.38 90 -25.76 90 -21 90 C-21 85.05 -21 80.1 -21 75 C-18.69 75 -16.38 75 -14 75 C-14 72.36 -14 69.72 -14 67 C-16.31 67 -18.62 67 -21 67 C-21 62.05 -21 57.1 -21 52 C-25.62 52 -30.24 52 -35 52 C-35 56.95 -35 61.9 -35 67 C-37.31 67 -39.62 67 -42 67 C-42 74.26 -42 81.52 -42 89 C-44.31 89 -46.62 89 -49 89 C-49 84.05 -49 79.1 -49 74 C-55.93 74 -62.86 74 -70 74 C-70 76.64 -70 79.28 -70 82 C-76.93 82 -83.86 82 -91 82 C-91 79.36 -91 76.72 -91 74 C-95.62 74 -100.24 74 -105 74 C-105 69.05 -105 64.1 -105 59 C-109.62 59 -114.24 59 -119 59 C-119 56.69 -119 54.38 -119 52 C-112.07 52 -105.14 52 -98 52 C-98 49.69 -98 47.38 -98 45 C-95.69 45 -93.38 45 -91 45 C-91 47.31 -91 49.62 -91 52 C-88.69 52 -86.38 52 -84 52 C-84 59.26 -84 66.52 -84 74 C-81.69 74 -79.38 74 -77 74 C-77 71.69 -77 69.38 -77 67 C-74.69 67 -72.38 67 -70 67 C-70 64.69 -70 62.38 -70 60 C-67.69 60 -65.38 60 -63 60 C-63 62.31 -63 64.62 -63 67 C-60.69 67 -58.38 67 -56 67 C-56 62.05 -56 57.1 -56 52 C-53.69 52 -51.38 52 -49 52 C-49 54.64 -49 57.28 -49 60 C-46.69 60 -44.38 60 -42 60 C-42 55.05 -42 50.1 -42 45 C-37.38 45 -32.76 45 -28 45 C-28 39.72 -28 34.44 -28 29 C-30.31 29 -32.62 29 -35 29 C-35 26.69 -35 24.38 -35 22 C-37.31 22 -39.62 22 -42 22 C-42 17.05 -42 12.1 -42 7 C-39.69 7 -37.38 7 -35 7 C-35 9.64 -35 12.28 -35 15 C-32.69 15 -30.38 15 -28 15 C-28 17.31 -28 19.62 -28 22 C-23.38 22 -18.76 22 -14 22 C-14 17.05 -14 12.1 -14 7 C-11.69 7 -9.38 7 -7 7 C-7 9.64 -7 12.28 -7 15 C-4.69 15 -2.38 15 0 15 C0 10.05 0 5.1 0 0 Z " fill="#080808" transform="translate(185,153)"/>
<path d="M0 0 C2.31 0 4.62 0 7 0 C7 2.64 7 5.28 7 8 C9.31 8 11.62 8 14 8 C14 10.31 14 12.62 14 15 C18.62 15 23.24 15 28 15 C28 17.31 28 19.62 28 22 C32.62 22 37.24 22 42 22 C42 19.69 42 17.38 42 15 C46.62 15 51.24 15 56 15 C56 17.31 56 19.62 56 22 C58.31 22 60.62 22 63 22 C63 19.69 63 17.38 63 15 C65.31 15 67.62 15 70 15 C70 12.69 70 10.38 70 8 C72.31 8 74.62 8 77 8 C77 10.31 77 12.62 77 15 C79.31 15 81.62 15 84 15 C84 17.31 84 19.62 84 22 C81.69 22 79.38 22 77 22 C77 24.64 77 27.28 77 30 C74.69 30 72.38 30 70 30 C70 32.31 70 34.62 70 37 C67.69 37 65.38 37 63 37 C63 34.69 63 32.38 63 30 C60.69 30 58.38 30 56 30 C56 32.31 56 34.62 56 37 C53.69 37 51.38 37 49 37 C49 34.69 49 32.38 49 30 C46.69 30 44.38 30 42 30 C42 32.64 42 35.28 42 38 C44.31 38 46.62 38 49 38 C49 40.31 49 42.62 49 45 C44.38 45 39.76 45 35 45 C35 42.69 35 40.38 35 38 C32.69 38 30.38 38 28 38 C28 45.26 28 52.52 28 60 C32.62 60 37.24 60 42 60 C42 62.64 42 65.28 42 68 C44.31 68 46.62 68 49 68 C49 70.31 49 72.62 49 75 C53.62 75 58.24 75 63 75 C63 79.95 63 84.9 63 90 C65.31 90 67.62 90 70 90 C70 77.79 70 65.58 70 53 C72.31 53 74.62 53 77 53 C77 55.31 77 57.62 77 60 C79.31 60 81.62 60 84 60 C84 62.31 84 64.62 84 67 C81.69 67 79.38 67 77 67 C77 69.64 77 72.28 77 75 C81.62 75 86.24 75 91 75 C91 77.31 91 79.62 91 82 C93.31 82 95.62 82 98 82 C98 86.95 98 91.9 98 97 C95.69 97 93.38 97 91 97 C91 99.64 91 102.28 91 105 C93.31 105 95.62 105 98 105 C98 107.31 98 109.62 98 112 C95.69 112 93.38 112 91 112 C91 116.95 91 121.9 91 127 C88.69 127 86.38 127 84 127 C84 124.69 84 122.38 84 120 C79.38 120 74.76 120 70 120 C70 117.69 70 115.38 70 113 C67.69 113 65.38 113 63 113 C63 115.31 63 117.62 63 120 C53.76 120 44.52 120 35 120 C35 115.05 35 110.1 35 105 C30.38 105 25.76 105 21 105 C21 107.31 21 109.62 21 112 C23.31 112 25.62 112 28 112 C28 114.64 28 117.28 28 120 C25.69 120 23.38 120 21 120 C21 122.31 21 124.62 21 127 C14.07 127 7.14 127 0 127 C0 124.69 0 122.38 0 120 C4.62 120 9.24 120 14 120 C14 112.74 14 105.48 14 98 C16.31 98 18.62 98 21 98 C21 95.36 21 92.72 21 90 C23.31 90 25.62 90 28 90 C28 87.69 28 85.38 28 83 C30.31 83 32.62 83 35 83 C35 80.36 35 77.72 35 75 C30.38 75 25.76 75 21 75 C21 72.36 21 69.72 21 67 C16.38 67 11.76 67 7 67 C7 62.05 7 57.1 7 52 C4.69 52 2.38 52 0 52 C0 49.69 0 47.38 0 45 C2.31 45 4.62 45 7 45 C7 42.36 7 39.72 7 37 C4.69 37 2.38 37 0 37 C0 24.79 0 12.58 0 0 Z " fill="#0E0E0E" transform="translate(24,85)"/>
<path d="M0 0 C6.93 0 13.86 0 21 0 C21 2.64 21 5.28 21 8 C23.31 8 25.62 8 28 8 C28 10.31 28 12.62 28 15 C30.31 15 32.62 15 35 15 C35 12.36 35 9.72 35 7 C32.69 7 30.38 7 28 7 C28 4.69 28 2.38 28 0 C32.62 0 37.24 0 42 0 C42 4.95 42 9.9 42 15 C44.31 15 46.62 15 49 15 C49 10.05 49 5.1 49 0 C51.31 0 53.62 0 56 0 C56 2.64 56 5.28 56 8 C60.62 8 65.24 8 70 8 C70 10.31 70 12.62 70 15 C72.31 15 74.62 15 77 15 C77 12.69 77 10.38 77 8 C79.31 8 81.62 8 84 8 C84 10.31 84 12.62 84 15 C88.62 15 93.24 15 98 15 C98 19.95 98 24.9 98 30 C95.69 30 93.38 30 91 30 C91 32.31 91 34.62 91 37 C93.31 37 95.62 37 98 37 C98 42.28 98 47.56 98 53 C93.38 53 88.76 53 84 53 C84 50.36 84 47.72 84 45 C81.69 45 79.38 45 77 45 C77 47.64 77 50.28 77 53 C74.69 53 72.38 53 70 53 C70 48.05 70 43.1 70 38 C67.69 38 65.38 38 63 38 C63 42.95 63 47.9 63 53 C60.69 53 58.38 53 56 53 C56 50.36 56 47.72 56 45 C53.69 45 51.38 45 49 45 C49 47.64 49 50.28 49 53 C46.69 53 44.38 53 42 53 C42 57.62 42 62.24 42 67 C39.69 67 37.38 67 35 67 C35 64.69 35 62.38 35 60 C32.69 60 30.38 60 28 60 C28 55.05 28 50.1 28 45 C30.31 45 32.62 45 35 45 C35 42.69 35 40.38 35 38 C30.38 38 25.76 38 21 38 C21 50.21 21 62.42 21 75 C18.69 75 16.38 75 14 75 C14 70.05 14 65.1 14 60 C11.69 60 9.38 60 7 60 C7 57.69 7 55.38 7 53 C9.31 53 11.62 53 14 53 C14 50.36 14 47.72 14 45 C11.69 45 9.38 45 7 45 C7 42.36 7 39.72 7 37 C16.24 37 25.48 37 35 37 C35 32.38 35 27.76 35 23 C30.38 23 25.76 23 21 23 C21 20.36 21 17.72 21 15 C18.69 15 16.38 15 14 15 C14 17.64 14 20.28 14 23 C9.38 23 4.76 23 0 23 C0 20.36 0 17.72 0 15 C2.31 15 4.62 15 7 15 C7 12.36 7 9.72 7 7 C4.69 7 2.38 7 0 7 C0 4.69 0 2.38 0 0 Z " fill="#E2E2E2" transform="translate(101,25)"/>
<path d="M0 0 C4.62 0 9.24 0 14 0 C14 2.31 14 4.62 14 7 C11.69 7 9.38 7 7 7 C7 9.64 7 12.28 7 15 C4.69 15 2.38 15 0 15 C0 19.62 0 24.24 0 29 C4.62 29 9.24 29 14 29 C14 26.69 14 24.38 14 22 C16.31 22 18.62 22 21 22 C21 24.31 21 26.62 21 29 C23.31 29 25.62 29 28 29 C28 29.33 28 29.66 28 30 C23.38 30 18.76 30 14 30 C14 34.95 14 39.9 14 45 C11.69 45 9.38 45 7 45 C7 42.36 7 39.72 7 37 C4.69 37 2.38 37 0 37 C0 41.95 0 46.9 0 52 C-4.62 52 -9.24 52 -14 52 C-14 49.69 -14 47.38 -14 45 C-16.31 45 -18.62 45 -21 45 C-21 42.36 -21 39.72 -21 37 C-23.31 37 -25.62 37 -28 37 C-28 41.95 -28 46.9 -28 52 C-25.69 52 -23.38 52 -21 52 C-21 54.31 -21 56.62 -21 59 C-18.69 59 -16.38 59 -14 59 C-14 64.28 -14 69.56 -14 75 C-18.62 75 -23.24 75 -28 75 C-28 79.95 -28 84.9 -28 90 C-30.31 90 -32.62 90 -35 90 C-35 87.36 -35 84.72 -35 82 C-37.31 82 -39.62 82 -42 82 C-42 86.95 -42 91.9 -42 97 C-44.31 97 -46.62 97 -49 97 C-49 94.69 -49 92.38 -49 90 C-51.31 90 -53.62 90 -56 90 C-56 92.31 -56 94.62 -56 97 C-58.31 97 -60.62 97 -63 97 C-63 99.31 -63 101.62 -63 104 C-65.31 104 -67.62 104 -70 104 C-70 96.74 -70 89.48 -70 82 C-67.69 82 -65.38 82 -63 82 C-63 84.31 -63 86.62 -63 89 C-60.69 89 -58.38 89 -56 89 C-56 84.05 -56 79.1 -56 74 C-53.69 74 -51.38 74 -49 74 C-49 71.69 -49 69.38 -49 67 C-51.31 67 -53.62 67 -56 67 C-56 64.36 -56 61.72 -56 59 C-53.69 59 -51.38 59 -49 59 C-49 56.69 -49 54.38 -49 52 C-44.38 52 -39.76 52 -35 52 C-35 44.74 -35 37.48 -35 30 C-37.31 30 -39.62 30 -42 30 C-42 27.36 -42 24.72 -42 22 C-37.38 22 -32.76 22 -28 22 C-28 24.64 -28 27.28 -28 30 C-25.69 30 -23.38 30 -21 30 C-21 27.36 -21 24.72 -21 22 C-18.69 22 -16.38 22 -14 22 C-14 19.36 -14 16.72 -14 14 C-16.31 14 -18.62 14 -21 14 C-21 11.69 -21 9.38 -21 7 C-16.38 7 -11.76 7 -7 7 C-7 9.31 -7 11.62 -7 14 C-4.69 14 -2.38 14 0 14 C0 9.38 0 4.76 0 0 Z " fill="#E7E7E7" transform="translate(171,123)"/>
<path d="M0 0 C16.17 0 32.34 0 49 0 C49 17.16 49 34.32 49 52 C32.83 52 16.66 52 0 52 C0 34.84 0 17.68 0 0 Z " fill="#E6E6E6" transform="translate(24,220)"/>
<path d="M0 0 C16.17 0 32.34 0 49 0 C49 17.16 49 34.32 49 52 C32.83 52 16.66 52 0 52 C0 34.84 0 17.68 0 0 Z " fill="#E6E6E6" transform="translate(206,25)"/>
<path d="M0 0 C16.17 0 32.34 0 49 0 C49 17.16 49 34.32 49 52 C32.83 52 16.66 52 0 52 C0 34.84 0 17.68 0 0 Z " fill="#E6E6E6" transform="translate(24,25)"/>
<path d="M0 0 C2.31 0 4.62 0 7 0 C7 2.31 7 4.62 7 7 C9.31 7 11.62 7 14 7 C14 9.31 14 11.62 14 14 C11.69 14 9.38 14 7 14 C7 16.64 7 19.28 7 22 C11.62 22 16.24 22 21 22 C21 24.31 21 26.62 21 29 C23.31 29 25.62 29 28 29 C28 33.95 28 38.9 28 44 C25.69 44 23.38 44 21 44 C21 46.64 21 49.28 21 52 C23.31 52 25.62 52 28 52 C28 54.31 28 56.62 28 59 C25.69 59 23.38 59 21 59 C21 63.95 21 68.9 21 74 C18.69 74 16.38 74 14 74 C14 71.69 14 69.38 14 67 C9.38 67 4.76 67 0 67 C0 64.69 0 62.38 0 60 C-2.31 60 -4.62 60 -7 60 C-7 62.31 -7 64.62 -7 67 C-16.24 67 -25.48 67 -35 67 C-35 59.41 -35 51.82 -35 44 C-30.38 44 -25.76 44 -21 44 C-21 41.69 -21 39.38 -21 37 C-23.31 37 -25.62 37 -28 37 C-28 34.69 -28 32.38 -28 30 C-25.69 30 -23.38 30 -21 30 C-21 27.36 -21 24.72 -21 22 C-16.38 22 -11.76 22 -7 22 C-7 26.95 -7 31.9 -7 37 C-4.69 37 -2.38 37 0 37 C0 24.79 0 12.58 0 0 Z " fill="#E5E5E5" transform="translate(94,138)"/>
<path d="M0 0 C4.62 0 9.24 0 14 0 C14 2.31 14 4.62 14 7 C16.31 7 18.62 7 21 7 C21 19.54 21 32.08 21 45 C25.62 45 30.24 45 35 45 C35 47.31 35 49.62 35 52 C32.69 52 30.38 52 28 52 C28 54.31 28 56.62 28 59 C14.14 59 0.28 59 -14 59 C-14 56.69 -14 54.38 -14 52 C-16.31 52 -18.62 52 -21 52 C-21 54.31 -21 56.62 -21 59 C-25.62 59 -30.24 59 -35 59 C-35 56.69 -35 54.38 -35 52 C-37.31 52 -39.62 52 -42 52 C-42 54.31 -42 56.62 -42 59 C-44.31 59 -46.62 59 -49 59 C-49 54.38 -49 49.76 -49 45 C-46.69 45 -44.38 45 -42 45 C-42 42.36 -42 39.72 -42 37 C-39.69 37 -37.38 37 -35 37 C-35 39.64 -35 42.28 -35 45 C-32.69 45 -30.38 45 -28 45 C-28 42.36 -28 39.72 -28 37 C-25.69 37 -23.38 37 -21 37 C-21 34.69 -21 32.38 -21 30 C-16.38 30 -11.76 30 -7 30 C-7 25.05 -7 20.1 -7 15 C-4.69 15 -2.38 15 0 15 C0 10.05 0 5.1 0 0 Z " fill="#090909" transform="translate(171,213)"/>
<path d="M0 0 C2.31 0 4.62 0 7 0 C7 2.31 7 4.62 7 7 C9.31 7 11.62 7 14 7 C14 9.31 14 11.62 14 14 C18.62 14 23.24 14 28 14 C28 11.69 28 9.38 28 7 C30.31 7 32.62 7 35 7 C35 9.31 35 11.62 35 14 C37.31 14 39.62 14 42 14 C42 16.64 42 19.28 42 22 C37.38 22 32.76 22 28 22 C28 29.59 28 37.18 28 45 C23.38 45 18.76 45 14 45 C14 42.36 14 39.72 14 37 C9.38 37 4.76 37 0 37 C0 34.69 0 32.38 0 30 C-4.62 30 -9.24 30 -14 30 C-14 32.31 -14 34.62 -14 37 C-16.31 37 -18.62 37 -21 37 C-21 29.74 -21 22.48 -21 15 C-23.31 15 -25.62 15 -28 15 C-28 22.26 -28 29.52 -28 37 C-30.31 37 -32.62 37 -35 37 C-35 32.05 -35 27.1 -35 22 C-37.31 22 -39.62 22 -42 22 C-42 24.31 -42 26.62 -42 29 C-44.31 29 -46.62 29 -49 29 C-49 24.05 -49 19.1 -49 14 C-42.07 14 -35.14 14 -28 14 C-28 11.69 -28 9.38 -28 7 C-18.76 7 -9.52 7 0 7 C0 4.69 0 2.38 0 0 Z " fill="#E1E1E1" transform="translate(213,168)"/>
<path d="M0 0 C4.62 0 9.24 0 14 0 C14 4.95 14 9.9 14 15 C16.31 15 18.62 15 21 15 C21 17.64 21 20.28 21 23 C18.69 23 16.38 23 14 23 C14 27.95 14 32.9 14 38 C9.38 38 4.76 38 0 38 C0 40.31 0 42.62 0 45 C-2.31 45 -4.62 45 -7 45 C-7 47.64 -7 50.28 -7 53 C-9.31 53 -11.62 53 -14 53 C-14 50.36 -14 47.72 -14 45 C-16.31 45 -18.62 45 -21 45 C-21 47.64 -21 50.28 -21 53 C-25.62 53 -30.24 53 -35 53 C-35 55.31 -35 57.62 -35 60 C-37.31 60 -39.62 60 -42 60 C-42 55.05 -42 50.1 -42 45 C-46.62 45 -51.24 45 -56 45 C-56 47.31 -56 49.62 -56 52 C-58.31 52 -60.62 52 -63 52 C-63 47.38 -63 42.76 -63 38 C-53.76 38 -44.52 38 -35 38 C-35 32.72 -35 27.44 -35 22 C-28.07 22 -21.14 22 -14 22 C-14 26.95 -14 31.9 -14 37 C-11.69 37 -9.38 37 -7 37 C-7 29.74 -7 22.48 -7 15 C-4.69 15 -2.38 15 0 15 C0 10.05 0 5.1 0 0 Z " fill="#E6E6E6" transform="translate(150,205)"/>
<path d="M0 0 C2.31 0 4.62 0 7 0 C7 14.85 7 29.7 7 45 C9.31 45 11.62 45 14 45 C14 49.62 14 54.24 14 59 C11.69 59 9.38 59 7 59 C7 63.95 7 68.9 7 74 C4.69 74 2.38 74 0 74 C0 61.79 0 49.58 0 37 C-2.31 37 -4.62 37 -7 37 C-7 39.31 -7 41.62 -7 44 C-9.31 44 -11.62 44 -14 44 C-14 48.95 -14 53.9 -14 59 C-16.31 59 -18.62 59 -21 59 C-21 56.69 -21 54.38 -21 52 C-23.31 52 -25.62 52 -28 52 C-28 44.41 -28 36.82 -28 29 C-30.31 29 -32.62 29 -35 29 C-35 24.38 -35 19.76 -35 15 C-32.69 15 -30.38 15 -28 15 C-28 17.31 -28 19.62 -28 22 C-23.38 22 -18.76 22 -14 22 C-14 24.31 -14 26.62 -14 29 C-16.31 29 -18.62 29 -21 29 C-21 31.64 -21 34.28 -21 37 C-18.69 37 -16.38 37 -14 37 C-14 34.69 -14 32.38 -14 30 C-9.38 30 -4.76 30 0 30 C0 24.72 0 19.44 0 14 C-2.31 14 -4.62 14 -7 14 C-7 11.69 -7 9.38 -7 7 C-4.69 7 -2.38 7 0 7 C0 4.69 0 2.38 0 0 Z " fill="#080808" transform="translate(241,93)"/>
<path d="M0 0 C6.93 0 13.86 0 21 0 C21 2.64 21 5.28 21 8 C23.31 8 25.62 8 28 8 C28 10.31 28 12.62 28 15 C30.31 15 32.62 15 35 15 C35 12.36 35 9.72 35 7 C32.69 7 30.38 7 28 7 C28 4.69 28 2.38 28 0 C32.62 0 37.24 0 42 0 C42 4.95 42 9.9 42 15 C44.31 15 46.62 15 49 15 C49 10.05 49 5.1 49 0 C51.31 0 53.62 0 56 0 C56 2.64 56 5.28 56 8 C60.62 8 65.24 8 70 8 C70 10.31 70 12.62 70 15 C67.69 15 65.38 15 63 15 C63 17.31 63 19.62 63 22 C58.38 22 53.76 22 49 22 C49 24.64 49 27.28 49 30 C46.69 30 44.38 30 42 30 C42 32.31 42 34.62 42 37 C39.69 37 37.38 37 35 37 C35 32.38 35 27.76 35 23 C30.38 23 25.76 23 21 23 C21 20.36 21 17.72 21 15 C18.69 15 16.38 15 14 15 C14 17.64 14 20.28 14 23 C9.38 23 4.76 23 0 23 C0 20.36 0 17.72 0 15 C2.31 15 4.62 15 7 15 C7 12.36 7 9.72 7 7 C4.69 7 2.38 7 0 7 C0 4.69 0 2.38 0 0 Z " fill="#0A0A0A" transform="translate(101,25)"/>
<path d="M0 0 C16.17 0 32.34 0 49 0 C49 17.16 49 34.32 49 52 C32.83 52 16.66 52 0 52 C0 34.84 0 17.68 0 0 Z M7 7 C7 19.54 7 32.08 7 45 C18.55 45 30.1 45 42 45 C42 32.46 42 19.92 42 7 C30.45 7 18.9 7 7 7 Z " fill="#080808" transform="translate(24,220)"/>
<path d="M0 0 C16.17 0 32.34 0 49 0 C49 17.16 49 34.32 49 52 C32.83 52 16.66 52 0 52 C0 34.84 0 17.68 0 0 Z M7 7 C7 19.54 7 32.08 7 45 C18.55 45 30.1 45 42 45 C42 32.46 42 19.92 42 7 C30.45 7 18.9 7 7 7 Z " fill="#080808" transform="translate(206,25)"/>
<path d="M0 0 C16.17 0 32.34 0 49 0 C49 17.16 49 34.32 49 52 C32.83 52 16.66 52 0 52 C0 34.84 0 17.68 0 0 Z M7 7 C7 19.54 7 32.08 7 45 C18.55 45 30.1 45 42 45 C42 32.46 42 19.92 42 7 C30.45 7 18.9 7 7 7 Z " fill="#080808" transform="translate(24,25)"/>
<path d="M0 0 C6.93 0 13.86 0 21 0 C21 4.95 21 9.9 21 15 C25.62 15 30.24 15 35 15 C35 17.31 35 19.62 35 22 C28.07 22 21.14 22 14 22 C14 24.64 14 27.28 14 30 C11.69 30 9.38 30 7 30 C7 32.64 7 35.28 7 38 C4.69 38 2.38 38 0 38 C0 40.31 0 42.62 0 45 C-2.31 45 -4.62 45 -7 45 C-7 47.31 -7 49.62 -7 52 C-9.31 52 -11.62 52 -14 52 C-14 49.69 -14 47.38 -14 45 C-16.31 45 -18.62 45 -21 45 C-21 42.36 -21 39.72 -21 37 C-23.31 37 -25.62 37 -28 37 C-28 32.38 -28 27.76 -28 23 C-25.69 23 -23.38 23 -21 23 C-21 25.31 -21 27.62 -21 30 C-18.69 30 -16.38 30 -14 30 C-14 32.64 -14 35.28 -14 38 C-11.69 38 -9.38 38 -7 38 C-7 30.41 -7 22.82 -7 15 C-4.69 15 -2.38 15 0 15 C0 17.64 0 20.28 0 23 C2.31 23 4.62 23 7 23 C7 17.72 7 12.44 7 7 C4.69 7 2.38 7 0 7 C0 4.69 0 2.38 0 0 Z " fill="#EDEDED" transform="translate(150,85)"/>
<path d="M0 0 C2.31 0 4.62 0 7 0 C7 4.95 7 9.9 7 15 C16.24 15 25.48 15 35 15 C35 17.31 35 19.62 35 22 C30.38 22 25.76 22 21 22 C21 24.64 21 27.28 21 30 C18.69 30 16.38 30 14 30 C14 27.69 14 25.38 14 23 C9.38 23 4.76 23 0 23 C0 32.9 0 42.8 0 53 C2.31 53 4.62 53 7 53 C7 55.31 7 57.62 7 60 C4.69 60 2.38 60 0 60 C0 62.31 0 64.62 0 67 C-2.31 67 -4.62 67 -7 67 C-7 64.69 -7 62.38 -7 60 C-9.31 60 -11.62 60 -14 60 C-14 57.36 -14 54.72 -14 52 C-16.31 52 -18.62 52 -21 52 C-21 49.69 -21 47.38 -21 45 C-16.38 45 -11.76 45 -7 45 C-7 32.79 -7 20.58 -7 8 C-4.69 8 -2.38 8 0 8 C0 5.36 0 2.72 0 0 Z " fill="#090909" transform="translate(87,40)"/>
<path d="M0 0 C4.62 0 9.24 0 14 0 C14 2.64 14 5.28 14 8 C11.69 8 9.38 8 7 8 C7 10.31 7 12.62 7 15 C9.31 15 11.62 15 14 15 C14 17.31 14 19.62 14 22 C9.38 22 4.76 22 0 22 C0 24.64 0 27.28 0 30 C-4.62 30 -9.24 30 -14 30 C-14 32.31 -14 34.62 -14 37 C-11.69 37 -9.38 37 -7 37 C-7 39.64 -7 42.28 -7 45 C-9.31 45 -11.62 45 -14 45 C-14 47.31 -14 49.62 -14 52 C-20.93 52 -27.86 52 -35 52 C-35 49.69 -35 47.38 -35 45 C-30.38 45 -25.76 45 -21 45 C-21 37.74 -21 30.48 -21 23 C-18.69 23 -16.38 23 -14 23 C-14 20.36 -14 17.72 -14 15 C-11.69 15 -9.38 15 -7 15 C-7 12.69 -7 10.38 -7 8 C-4.69 8 -2.38 8 0 8 C0 5.36 0 2.72 0 0 Z " fill="#090909" transform="translate(59,160)"/>
<path d="M0 0 C2.31 0 4.62 0 7 0 C7 2.31 7 4.62 7 7 C9.31 7 11.62 7 14 7 C14 9.31 14 11.62 14 14 C11.69 14 9.38 14 7 14 C7 16.64 7 19.28 7 22 C11.62 22 16.24 22 21 22 C21 24.31 21 26.62 21 29 C23.31 29 25.62 29 28 29 C28 31.64 28 34.28 28 37 C21.07 37 14.14 37 7 37 C7 39.31 7 41.62 7 44 C2.38 44 -2.24 44 -7 44 C-7 41.69 -7 39.38 -7 37 C-4.69 37 -2.38 37 0 37 C0 24.79 0 12.58 0 0 Z " fill="#ECECEC" transform="translate(94,138)"/>
<path d="M0 0 C6.93 0 13.86 0 21 0 C21 2.31 21 4.62 21 7 C18.69 7 16.38 7 14 7 C14 9.64 14 12.28 14 15 C16.31 15 18.62 15 21 15 C21 17.31 21 19.62 21 22 C18.69 22 16.38 22 14 22 C14 26.95 14 31.9 14 37 C11.69 37 9.38 37 7 37 C7 34.69 7 32.38 7 30 C4.69 30 2.38 30 0 30 C0 25.05 0 20.1 0 15 C-4.62 15 -9.24 15 -14 15 C-14 12.69 -14 10.38 -14 8 C-9.38 8 -4.76 8 0 8 C0 5.36 0 2.72 0 0 Z " fill="#080808" transform="translate(101,175)"/>
<path d="M0 0 C13.86 0 27.72 0 42 0 C42 4.95 42 9.9 42 15 C39.69 15 37.38 15 35 15 C35 17.31 35 19.62 35 22 C32.69 22 30.38 22 28 22 C28 19.69 28 17.38 28 15 C25.69 15 23.38 15 21 15 C21 12.69 21 10.38 21 8 C18.69 8 16.38 8 14 8 C14 10.31 14 12.62 14 15 C11.69 15 9.38 15 7 15 C7 12.69 7 10.38 7 8 C2.38 8 -2.24 8 -7 8 C-7 7.67 -7 7.34 -7 7 C-4.69 7 -2.38 7 0 7 C0 4.69 0 2.38 0 0 Z " fill="#0E0E0E" transform="translate(192,85)"/>
<path d="M0 0 C4.62 0 9.24 0 14 0 C14 2.31 14 4.62 14 7 C11.69 7 9.38 7 7 7 C7 11.95 7 16.9 7 22 C4.69 22 2.38 22 0 22 C0 24.64 0 27.28 0 30 C-2.31 30 -4.62 30 -7 30 C-7 25.05 -7 20.1 -7 15 C-11.62 15 -16.24 15 -21 15 C-21 17.31 -21 19.62 -21 22 C-23.31 22 -25.62 22 -28 22 C-28 17.38 -28 12.76 -28 8 C-18.76 8 -9.52 8 0 8 C0 5.36 0 2.72 0 0 Z " fill="#080808" transform="translate(115,235)"/>
<path d="M0 0 C2.31 0 4.62 0 7 0 C7 2.64 7 5.28 7 8 C11.62 8 16.24 8 21 8 C21 5.36 21 2.72 21 0 C23.31 0 25.62 0 28 0 C28 2.64 28 5.28 28 8 C32.62 8 37.24 8 42 8 C42 12.62 42 17.24 42 22 C37.38 22 32.76 22 28 22 C28 19.69 28 17.38 28 15 C18.76 15 9.52 15 0 15 C0 10.05 0 5.1 0 0 Z " fill="#EEEEEE" transform="translate(94,40)"/>
<path d="M0 0 C6.93 0 13.86 0 21 0 C21 7.59 21 15.18 21 23 C14.07 23 7.14 23 0 23 C0 15.41 0 7.82 0 0 Z " fill="#E6E6E6" transform="translate(199,212)"/>
<path d="M0 0 C6.93 0 13.86 0 21 0 C21 7.26 21 14.52 21 22 C14.07 22 7.14 22 0 22 C0 14.74 0 7.48 0 0 Z " fill="#080808" transform="translate(38,235)"/>
<path d="M0 0 C6.93 0 13.86 0 21 0 C21 7.26 21 14.52 21 22 C14.07 22 7.14 22 0 22 C0 14.74 0 7.48 0 0 Z " fill="#080808" transform="translate(220,40)"/>
<path d="M0 0 C6.93 0 13.86 0 21 0 C21 7.26 21 14.52 21 22 C14.07 22 7.14 22 0 22 C0 14.74 0 7.48 0 0 Z " fill="#080808" transform="translate(38,40)"/>
<path d="M0 0 C4.62 0 9.24 0 14 0 C14 2.31 14 4.62 14 7 C16.31 7 18.62 7 21 7 C21 16.9 21 26.8 21 37 C18.69 37 16.38 37 14 37 C14 32.05 14 27.1 14 22 C11.69 22 9.38 22 7 22 C7 17.05 7 12.1 7 7 C4.69 7 2.38 7 0 7 C0 4.69 0 2.38 0 0 Z " fill="#EEEEEE" transform="translate(171,213)"/>
<path d="M0 0 C2.31 0 4.62 0 7 0 C7 2.64 7 5.28 7 8 C9.31 8 11.62 8 14 8 C14 15.26 14 22.52 14 30 C9.38 30 4.76 30 0 30 C0 27.36 0 24.72 0 22 C-2.31 22 -4.62 22 -7 22 C-7 19.69 -7 17.38 -7 15 C-4.69 15 -2.38 15 0 15 C0 10.05 0 5.1 0 0 Z " fill="#080808" transform="translate(122,145)"/>
<path d="M0 0 C2.31 0 4.62 0 7 0 C7 2.31 7 4.62 7 7 C9.31 7 11.62 7 14 7 C14 9.31 14 11.62 14 14 C11.69 14 9.38 14 7 14 C7 16.64 7 19.28 7 22 C4.69 22 2.38 22 0 22 C0 24.31 0 26.62 0 29 C-2.31 29 -4.62 29 -7 29 C-7 26.69 -7 24.38 -7 22 C-9.31 22 -11.62 22 -14 22 C-14 19.69 -14 17.38 -14 15 C-11.69 15 -9.38 15 -7 15 C-7 12.36 -7 9.72 -7 7 C-4.69 7 -2.38 7 0 7 C0 4.69 0 2.38 0 0 Z " fill="#EEEEEE" transform="translate(94,93)"/>
<path d="M0 0 C4.62 0 9.24 0 14 0 C14 12.21 14 24.42 14 37 C11.69 37 9.38 37 7 37 C7 32.05 7 27.1 7 22 C4.69 22 2.38 22 0 22 C0 19.69 0 17.38 0 15 C2.31 15 4.62 15 7 15 C7 12.36 7 9.72 7 7 C4.69 7 2.38 7 0 7 C0 4.69 0 2.38 0 0 Z " fill="#EEEEEE" transform="translate(108,63)"/>
<path d="M0 0 C2.31 0 4.62 0 7 0 C7 2.31 7 4.62 7 7 C11.62 7 16.24 7 21 7 C21 9.31 21 11.62 21 14 C18.69 14 16.38 14 14 14 C14 16.64 14 19.28 14 22 C9.38 22 4.76 22 0 22 C0 14.74 0 7.48 0 0 Z " fill="#080808" transform="translate(52,123)"/>
<path d="M0 0 C6.93 0 13.86 0 21 0 C21 7.26 21 14.52 21 22 C18.69 22 16.38 22 14 22 C14 17.05 14 12.1 14 7 C11.69 7 9.38 7 7 7 C7 9.31 7 11.62 7 14 C4.69 14 2.38 14 0 14 C0 9.38 0 4.76 0 0 Z " fill="#EEEEEE" transform="translate(164,183)"/>
<path d="M0 0 C2.31 0 4.62 0 7 0 C7 2.64 7 5.28 7 8 C9.31 8 11.62 8 14 8 C14 10.31 14 12.62 14 15 C11.69 15 9.38 15 7 15 C7 17.31 7 19.62 7 22 C2.38 22 -2.24 22 -7 22 C-7 17.38 -7 12.76 -7 8 C-4.69 8 -2.38 8 0 8 C0 5.36 0 2.72 0 0 Z " fill="#EEEEEE" transform="translate(199,145)"/>
<path d="M0 0 C4.62 0 9.24 0 14 0 C14 4.95 14 9.9 14 15 C11.69 15 9.38 15 7 15 C7 17.31 7 19.62 7 22 C4.69 22 2.38 22 0 22 C0 14.74 0 7.48 0 0 Z " fill="#080808" transform="translate(185,40)"/>
<path d="M0 0 C2.31 0 4.62 0 7 0 C7 2.64 7 5.28 7 8 C9.31 8 11.62 8 14 8 C14 12.62 14 17.24 14 22 C11.69 22 9.38 22 7 22 C7 19.69 7 17.38 7 15 C2.38 15 -2.24 15 -7 15 C-7 12.69 -7 10.38 -7 8 C-4.69 8 -2.38 8 0 8 C0 5.36 0 2.72 0 0 Z " fill="#080808" transform="translate(157,115)"/>
<path d="M0 0 C4.62 0 9.24 0 14 0 C14 2.31 14 4.62 14 7 C11.69 7 9.38 7 7 7 C7 14.26 7 21.52 7 29 C4.69 29 2.38 29 0 29 C0 19.43 0 9.86 0 0 Z " fill="#EEEEEE" transform="translate(87,63)"/>
<path d="M0 0 C2.31 0 4.62 0 7 0 C7 2.64 7 5.28 7 8 C9.31 8 11.62 8 14 8 C14 10.31 14 12.62 14 15 C11.69 15 9.38 15 7 15 C7 17.31 7 19.62 7 22 C4.69 22 2.38 22 0 22 C0 14.74 0 7.48 0 0 Z " fill="#EEEEEE" transform="translate(101,205)"/>
<path d="M0 0 C4.62 0 9.24 0 14 0 C14 2.64 14 5.28 14 8 C16.31 8 18.62 8 21 8 C21 10.31 21 12.62 21 15 C16.38 15 11.76 15 7 15 C7 12.36 7 9.72 7 7 C4.69 7 2.38 7 0 7 C0 4.69 0 2.38 0 0 Z " fill="#EEEEEE" transform="translate(52,145)"/>
<path d="M0 0 C4.62 0 9.24 0 14 0 C14 2.31 14 4.62 14 7 C11.69 7 9.38 7 7 7 C7 11.95 7 16.9 7 22 C4.69 22 2.38 22 0 22 C0 14.74 0 7.48 0 0 Z " fill="#EEEEEE" transform="translate(115,138)"/>
<path d="M0 0 C2.31 0 4.62 0 7 0 C7 7.26 7 14.52 7 22 C4.69 22 2.38 22 0 22 C0 19.36 0 16.72 0 14 C-2.31 14 -4.62 14 -7 14 C-7 11.69 -7 9.38 -7 7 C-4.69 7 -2.38 7 0 7 C0 4.69 0 2.38 0 0 Z " fill="#EEEEEE" transform="translate(45,123)"/>
<path d="M0 0 C4.62 0 9.24 0 14 0 C14 2.64 14 5.28 14 8 C16.31 8 18.62 8 21 8 C21 10.31 21 12.62 21 15 C16.38 15 11.76 15 7 15 C7 12.36 7 9.72 7 7 C4.69 7 2.38 7 0 7 C0 4.69 0 2.38 0 0 Z " fill="#EEEEEE" transform="translate(52,115)"/>
<path d="M0 0 C2.31 0 4.62 0 7 0 C7 2.64 7 5.28 7 8 C9.31 8 11.62 8 14 8 C14 12.62 14 17.24 14 22 C11.69 22 9.38 22 7 22 C7 19.69 7 17.38 7 15 C4.69 15 2.38 15 0 15 C0 10.05 0 5.1 0 0 Z " fill="#EEEEEE" transform="translate(129,70)"/>
<path d="M0 0 C4.62 0 9.24 0 14 0 C14 4.95 14 9.9 14 15 C11.69 15 9.38 15 7 15 C7 12.36 7 9.72 7 7 C4.69 7 2.38 7 0 7 C0 4.69 0 2.38 0 0 Z " fill="#EEEEEE" transform="translate(157,250)"/>
<path d="M0 0 C4.62 0 9.24 0 14 0 C14 4.95 14 9.9 14 15 C11.69 15 9.38 15 7 15 C7 12.36 7 9.72 7 7 C4.69 7 2.38 7 0 7 C0 4.69 0 2.38 0 0 Z " fill="#EEEEEE" transform="translate(87,190)"/>
<path d="M0 0 C4.62 0 9.24 0 14 0 C14 2.31 14 4.62 14 7 C11.69 7 9.38 7 7 7 C7 9.64 7 12.28 7 15 C4.69 15 2.38 15 0 15 C0 10.05 0 5.1 0 0 Z " fill="#080808" transform="translate(59,190)"/>
<path d="M0 0 C4.62 0 9.24 0 14 0 C14 4.95 14 9.9 14 15 C11.69 15 9.38 15 7 15 C7 12.36 7 9.72 7 7 C4.69 7 2.38 7 0 7 C0 4.69 0 2.38 0 0 Z " fill="#EEEEEE" transform="translate(45,190)"/>
<path d="M0 0 C4.62 0 9.24 0 14 0 C14 4.95 14 9.9 14 15 C11.69 15 9.38 15 7 15 C7 12.36 7 9.72 7 7 C4.69 7 2.38 7 0 7 C0 4.69 0 2.38 0 0 Z " fill="#080808" transform="translate(31,160)"/>
<path d="M0 0 C2.31 0 4.62 0 7 0 C7 7.26 7 14.52 7 22 C4.69 22 2.38 22 0 22 C0 14.74 0 7.48 0 0 Z " fill="#EEEEEE" transform="translate(206,123)"/>
<path d="M0 0 C6.93 0 13.86 0 21 0 C21 2.31 21 4.62 21 7 C14.07 7 7.14 7 0 7 C0 4.69 0 2.38 0 0 Z " fill="#080808" transform="translate(80,265)"/>
<path d="M0 0 C4.62 0 9.24 0 14 0 C14 2.31 14 4.62 14 7 C11.69 7 9.38 7 7 7 C7 9.31 7 11.62 7 14 C4.69 14 2.38 14 0 14 C0 9.38 0 4.76 0 0 Z " fill="#080808" transform="translate(227,183)"/>
<path d="M0 0 C4.62 0 9.24 0 14 0 C14 2.31 14 4.62 14 7 C11.69 7 9.38 7 7 7 C7 9.31 7 11.62 7 14 C4.69 14 2.38 14 0 14 C0 9.38 0 4.76 0 0 Z " fill="#EEEEEE" transform="translate(171,123)"/>
<path d="M0 0 C4.62 0 9.24 0 14 0 C14 2.31 14 4.62 14 7 C9.38 7 4.76 7 0 7 C0 4.69 0 2.38 0 0 Z " fill="#EEEEEE" transform="translate(192,250)"/>
<path d="M0 0 C2.31 0 4.62 0 7 0 C7 4.62 7 9.24 7 14 C4.69 14 2.38 14 0 14 C0 9.38 0 4.76 0 0 Z " fill="#EEEEEE" transform="translate(213,243)"/>
<path d="M0 0 C4.62 0 9.24 0 14 0 C14 2.31 14 4.62 14 7 C9.38 7 4.76 7 0 7 C0 4.69 0 2.38 0 0 Z " fill="#080808" transform="translate(241,235)"/>
<path d="M0 0 C2.31 0 4.62 0 7 0 C7 4.62 7 9.24 7 14 C4.69 14 2.38 14 0 14 C0 9.38 0 4.76 0 0 Z " fill="#080808" transform="translate(136,183)"/>
<path d="M0 0 C4.62 0 9.24 0 14 0 C14 2.31 14 4.62 14 7 C9.38 7 4.76 7 0 7 C0 4.69 0 2.38 0 0 Z " fill="#EEEEEE" transform="translate(73,145)"/>
<path d="M0 0 C2.31 0 4.62 0 7 0 C7 4.62 7 9.24 7 14 C4.69 14 2.38 14 0 14 C0 9.38 0 4.76 0 0 Z " fill="#EEEEEE" transform="translate(38,108)"/>
<path d="M0 0 C2.31 0 4.62 0 7 0 C7 4.62 7 9.24 7 14 C4.69 14 2.38 14 0 14 C0 9.38 0 4.76 0 0 Z " fill="#080808" transform="translate(192,63)"/>
<path d="M0 0 C4.62 0 9.24 0 14 0 C14 2.31 14 4.62 14 7 C9.38 7 4.76 7 0 7 C0 4.69 0 2.38 0 0 Z " fill="#080808" transform="translate(185,25)"/>
<path d="M0 0 C4.62 0 9.24 0 14 0 C14 2.31 14 4.62 14 7 C9.38 7 4.76 7 0 7 C0 4.69 0 2.38 0 0 Z " fill="#080808" transform="translate(80,25)"/>
<path d="M0 0 C2.31 0 4.62 0 7 0 C7 2.31 7 4.62 7 7 C4.69 7 2.38 7 0 7 C0 4.69 0 2.38 0 0 Z " fill="#080808" transform="translate(248,265)"/>
<path d="M0 0 C2.31 0 4.62 0 7 0 C7 2.31 7 4.62 7 7 C4.69 7 2.38 7 0 7 C0 4.69 0 2.38 0 0 Z " fill="#EEEEEE" transform="translate(178,258)"/>
<path d="M0 0 C2.31 0 4.62 0 7 0 C7 2.31 7 4.62 7 7 C4.69 7 2.38 7 0 7 C0 4.69 0 2.38 0 0 Z " fill="#EEEEEE" transform="translate(171,243)"/>
<path d="M0 0 C2.31 0 4.62 0 7 0 C7 2.31 7 4.62 7 7 C4.69 7 2.38 7 0 7 C0 4.69 0 2.38 0 0 Z " fill="#080808" transform="translate(80,235)"/>
<path d="M0 0 C2.31 0 4.62 0 7 0 C7 2.31 7 4.62 7 7 C4.69 7 2.38 7 0 7 C0 4.69 0 2.38 0 0 Z " fill="#080808" transform="translate(206,220)"/>
<path d="M0 0 C2.31 0 4.62 0 7 0 C7 2.31 7 4.62 7 7 C4.69 7 2.38 7 0 7 C0 4.69 0 2.38 0 0 Z " fill="#080808" transform="translate(150,220)"/>
<path d="M0 0 C2.31 0 4.62 0 7 0 C7 2.31 7 4.62 7 7 C4.69 7 2.38 7 0 7 C0 4.69 0 2.38 0 0 Z " fill="#080808" transform="translate(52,205)"/>
<path d="M0 0 C2.31 0 4.62 0 7 0 C7 2.31 7 4.62 7 7 C4.69 7 2.38 7 0 7 C0 4.69 0 2.38 0 0 Z " fill="#080808" transform="translate(213,190)"/>
<path d="M0 0 C2.31 0 4.62 0 7 0 C7 2.31 7 4.62 7 7 C4.69 7 2.38 7 0 7 C0 4.69 0 2.38 0 0 Z " fill="#080808" transform="translate(80,190)"/>
<path d="M0 0 C2.31 0 4.62 0 7 0 C7 2.31 7 4.62 7 7 C4.69 7 2.38 7 0 7 C0 4.69 0 2.38 0 0 Z " fill="#080808" transform="translate(248,183)"/>
<path d="M0 0 C2.31 0 4.62 0 7 0 C7 2.31 7 4.62 7 7 C4.69 7 2.38 7 0 7 C0 4.69 0 2.38 0 0 Z " fill="#EEEEEE" transform="translate(241,183)"/>
<path d="M0 0 C2.31 0 4.62 0 7 0 C7 2.31 7 4.62 7 7 C4.69 7 2.38 7 0 7 C0 4.69 0 2.38 0 0 Z " fill="#080808" transform="translate(199,183)"/>
<path d="M0 0 C2.31 0 4.62 0 7 0 C7 2.31 7 4.62 7 7 C4.69 7 2.38 7 0 7 C0 4.69 0 2.38 0 0 Z " fill="#080808" transform="translate(24,183)"/>
<path d="M0 0 C2.31 0 4.62 0 7 0 C7 2.31 7 4.62 7 7 C4.69 7 2.38 7 0 7 C0 4.69 0 2.38 0 0 Z " fill="#080808" transform="translate(241,175)"/>
<path d="M0 0 C2.31 0 4.62 0 7 0 C7 2.31 7 4.62 7 7 C4.69 7 2.38 7 0 7 C0 4.69 0 2.38 0 0 Z " fill="#080808" transform="translate(220,175)"/>
<path d="M0 0 C2.31 0 4.62 0 7 0 C7 2.31 7 4.62 7 7 C4.69 7 2.38 7 0 7 C0 4.69 0 2.38 0 0 Z " fill="#080808" transform="translate(206,175)"/>
<path d="M0 0 C2.31 0 4.62 0 7 0 C7 2.31 7 4.62 7 7 C4.69 7 2.38 7 0 7 C0 4.69 0 2.38 0 0 Z " fill="#080808" transform="translate(80,175)"/>
<path d="M0 0 C2.31 0 4.62 0 7 0 C7 2.31 7 4.62 7 7 C4.69 7 2.38 7 0 7 C0 4.69 0 2.38 0 0 Z " fill="#080808" transform="translate(213,168)"/>
<path d="M0 0 C2.31 0 4.62 0 7 0 C7 2.31 7 4.62 7 7 C4.69 7 2.38 7 0 7 C0 4.69 0 2.38 0 0 Z " fill="#080808" transform="translate(24,168)"/>
<path d="M0 0 C2.31 0 4.62 0 7 0 C7 2.31 7 4.62 7 7 C4.69 7 2.38 7 0 7 C0 4.69 0 2.38 0 0 Z " fill="#080808" transform="translate(220,160)"/>
<path d="M0 0 C2.31 0 4.62 0 7 0 C7 2.31 7 4.62 7 7 C4.69 7 2.38 7 0 7 C0 4.69 0 2.38 0 0 Z " fill="#080808" transform="translate(206,160)"/>
<path d="M0 0 C2.31 0 4.62 0 7 0 C7 2.31 7 4.62 7 7 C4.69 7 2.38 7 0 7 C0 4.69 0 2.38 0 0 Z " fill="#080808" transform="translate(227,153)"/>
<path d="M0 0 C2.31 0 4.62 0 7 0 C7 2.31 7 4.62 7 7 C4.69 7 2.38 7 0 7 C0 4.69 0 2.38 0 0 Z " fill="#080808" transform="translate(213,153)"/>
<path d="M0 0 C2.31 0 4.62 0 7 0 C7 2.31 7 4.62 7 7 C4.69 7 2.38 7 0 7 C0 4.69 0 2.38 0 0 Z " fill="#080808" transform="translate(206,145)"/>
<path d="M0 0 C2.31 0 4.62 0 7 0 C7 2.31 7 4.62 7 7 C4.69 7 2.38 7 0 7 C0 4.69 0 2.38 0 0 Z " fill="#EEEEEE" transform="translate(185,145)"/>
<path d="M0 0 C2.31 0 4.62 0 7 0 C7 2.31 7 4.62 7 7 C4.69 7 2.38 7 0 7 C0 4.69 0 2.38 0 0 Z " fill="#080808" transform="translate(157,145)"/>
<path d="M0 0 C2.31 0 4.62 0 7 0 C7 2.31 7 4.62 7 7 C4.69 7 2.38 7 0 7 C0 4.69 0 2.38 0 0 Z " fill="#080808" transform="translate(66,145)"/>
<path d="M0 0 C2.31 0 4.62 0 7 0 C7 2.31 7 4.62 7 7 C4.69 7 2.38 7 0 7 C0 4.69 0 2.38 0 0 Z " fill="#EEEEEE" transform="translate(66,138)"/>
<path d="M0 0 C2.31 0 4.62 0 7 0 C7 2.31 7 4.62 7 7 C4.69 7 2.38 7 0 7 C0 4.69 0 2.38 0 0 Z " fill="#EEEEEE" transform="translate(192,130)"/>
<path d="M0 0 C2.31 0 4.62 0 7 0 C7 2.31 7 4.62 7 7 C4.69 7 2.38 7 0 7 C0 4.69 0 2.38 0 0 Z " fill="#EEEEEE" transform="translate(108,130)"/>
<path d="M0 0 C2.31 0 4.62 0 7 0 C7 2.31 7 4.62 7 7 C4.69 7 2.38 7 0 7 C0 4.69 0 2.38 0 0 Z " fill="#EEEEEE" transform="translate(87,130)"/>
<path d="M0 0 C2.31 0 4.62 0 7 0 C7 2.31 7 4.62 7 7 C4.69 7 2.38 7 0 7 C0 4.69 0 2.38 0 0 Z " fill="#EEEEEE" transform="translate(73,130)"/>
<path d="M0 0 C2.31 0 4.62 0 7 0 C7 2.31 7 4.62 7 7 C4.69 7 2.38 7 0 7 C0 4.69 0 2.38 0 0 Z " fill="#EEEEEE" transform="translate(220,123)"/>
<path d="M0 0 C2.31 0 4.62 0 7 0 C7 2.31 7 4.62 7 7 C4.69 7 2.38 7 0 7 C0 4.69 0 2.38 0 0 Z " fill="#EEEEEE" transform="translate(101,123)"/>
<path d="M0 0 C2.31 0 4.62 0 7 0 C7 2.31 7 4.62 7 7 C4.69 7 2.38 7 0 7 C0 4.69 0 2.38 0 0 Z " fill="#EEEEEE" transform="translate(164,115)"/>
<path d="M0 0 C2.31 0 4.62 0 7 0 C7 2.31 7 4.62 7 7 C4.69 7 2.38 7 0 7 C0 4.69 0 2.38 0 0 Z " fill="#EEEEEE" transform="translate(73,115)"/>
<path d="M0 0 C2.31 0 4.62 0 7 0 C7 2.31 7 4.62 7 7 C4.69 7 2.38 7 0 7 C0 4.69 0 2.38 0 0 Z " fill="#080808" transform="translate(66,115)"/>
<path d="M0 0 C2.31 0 4.62 0 7 0 C7 2.31 7 4.62 7 7 C4.69 7 2.38 7 0 7 C0 4.69 0 2.38 0 0 Z " fill="#EEEEEE" transform="translate(108,108)"/>
<path d="M0 0 C2.31 0 4.62 0 7 0 C7 2.31 7 4.62 7 7 C4.69 7 2.38 7 0 7 C0 4.69 0 2.38 0 0 Z " fill="#080808" transform="translate(73,108)"/>
<path d="M0 0 C2.31 0 4.62 0 7 0 C7 2.31 7 4.62 7 7 C4.69 7 2.38 7 0 7 C0 4.69 0 2.38 0 0 Z " fill="#EEEEEE" transform="translate(66,108)"/>
<path d="M0 0 C2.31 0 4.62 0 7 0 C7 2.31 7 4.62 7 7 C4.69 7 2.38 7 0 7 C0 4.69 0 2.38 0 0 Z " fill="#080808" transform="translate(220,100)"/>
<path d="M0 0 C2.31 0 4.62 0 7 0 C7 2.31 7 4.62 7 7 C4.69 7 2.38 7 0 7 C0 4.69 0 2.38 0 0 Z " fill="#EEEEEE" transform="translate(73,100)"/>
<path d="M0 0 C2.31 0 4.62 0 7 0 C7 2.31 7 4.62 7 7 C4.69 7 2.38 7 0 7 C0 4.69 0 2.38 0 0 Z " fill="#080808" transform="translate(66,100)"/>
<path d="M0 0 C2.31 0 4.62 0 7 0 C7 2.31 7 4.62 7 7 C4.69 7 2.38 7 0 7 C0 4.69 0 2.38 0 0 Z " fill="#EEEEEE" transform="translate(220,93)"/>
<path d="M0 0 C2.31 0 4.62 0 7 0 C7 2.31 7 4.62 7 7 C4.69 7 2.38 7 0 7 C0 4.69 0 2.38 0 0 Z " fill="#080808" transform="translate(248,85)"/>
<path d="M0 0 C2.31 0 4.62 0 7 0 C7 2.31 7 4.62 7 7 C4.69 7 2.38 7 0 7 C0 4.69 0 2.38 0 0 Z " fill="#EEEEEE" transform="translate(185,85)"/>
<path d="M0 0 C2.31 0 4.62 0 7 0 C7 2.31 7 4.62 7 7 C4.69 7 2.38 7 0 7 C0 4.69 0 2.38 0 0 Z " fill="#080808" transform="translate(52,85)"/>
<path d="M0 0 C2.31 0 4.62 0 7 0 C7 2.31 7 4.62 7 7 C4.69 7 2.38 7 0 7 C0 4.69 0 2.38 0 0 Z " fill="#080808" transform="translate(136,70)"/>
<path d="M0 0 C2.31 0 4.62 0 7 0 C7 2.31 7 4.62 7 7 C4.69 7 2.38 7 0 7 C0 4.69 0 2.38 0 0 Z " fill="#080808" transform="translate(108,70)"/>
<path d="M0 0 C2.31 0 4.62 0 7 0 C7 2.31 7 4.62 7 7 C4.69 7 2.38 7 0 7 C0 4.69 0 2.38 0 0 Z " fill="#EEEEEE" transform="translate(101,70)"/>
<path d="M0 0 C2.31 0 4.62 0 7 0 C7 2.31 7 4.62 7 7 C4.69 7 2.38 7 0 7 C0 4.69 0 2.38 0 0 Z " fill="#080808" transform="translate(157,55)"/>
<path d="M0 0 C2.31 0 4.62 0 7 0 C7 2.31 7 4.62 7 7 C4.69 7 2.38 7 0 7 C0 4.69 0 2.38 0 0 Z " fill="#080808" transform="translate(171,40)"/>
<path d="M0 0 C2.31 0 4.62 0 7 0 C7 2.31 7 4.62 7 7 C4.69 7 2.38 7 0 7 C0 4.69 0 2.38 0 0 Z " fill="#080808" transform="translate(178,33)"/>
<path d="M0 0 C2.31 0 4.62 0 7 0 C7 2.31 7 4.62 7 7 C4.69 7 2.38 7 0 7 C0 4.69 0 2.38 0 0 Z " fill="#080808" transform="translate(94,33)"/>
</svg>
